<svg xmlns="http://www.w3.org/2000/svg" version="1.1" xmlns:xlink="http://www.w3.org/1999/xlink" xmlns:svgjs="http://svgjs.dev/svgjs" width="2000" height="317" viewBox="0 0 2000 317"><g transform="matrix(1,0,0,1,0.5406070100223133,0.15154617380088098)"><svg viewBox="0 0 397 63" data-background-color="#fafafa" preserveAspectRatio="xMidYMid meet" height="317" width="2000" xmlns="http://www.w3.org/2000/svg" xmlns:xlink="http://www.w3.org/1999/xlink"><g id="tight-bounds" transform="matrix(1,0,0,1,1.5873104914894043,2.506729602215046)"><svg viewBox="0 0 395.52 60.52338840708924" height="60.52338840708924" width="395.52"><g><svg viewBox="0 0 504.83062957615607 77.25035465623253" height="60.52338840708924" width="395.52"><g><rect width="5.040894866327825" height="56.17699452207936" x="91.07367485033137" y="10.536680067076585" fill="#130912" opacity="1" stroke-width="0" stroke="transparent" fill-opacity="1" class="rect-qz-0" data-fill-palette-color="primary" rx="1%" id="qz-0" data-palette-color="#130912"></rect></g><g transform="matrix(1,0,0,1,109.31062957615612,10.67642383454444)"><svg viewBox="0 0 395.52 55.89750698714365" height="55.89750698714365" width="395.52"><g id="textblocktransform"><svg viewBox="0 0 395.52 55.89750698714365" height="55.89750698714365" width="395.52" id="textblock"><g><svg viewBox="0 0 395.52 55.89750698714365" height="55.89750698714365" width="395.52"><g transform="matrix(1,0,0,1,0,0)"><svg width="395.52" viewBox="3.25 -36.55 262.03 37.04" height="55.89750698714365" data-palette-color="#130912"><path d="M27.25-7.01L27.25 0 3.25 0 3.25-35.01 27.25-35.01 27.25-28 10.25-28 10.25-21 21.75-21 21.75-13.99 10.25-13.99 10.25-7.01 27.25-7.01ZM38.16-36.55L38.16 0 31.44 0 31.44-36.55 38.16-36.55ZM66.13-21.46L53.63-6.4Q54.02-6.27 54.41-6.24 54.8-6.2 55.2-6.2L55.2-6.2Q56.17-6.2 57.08-6.47 57.98-6.74 58.77-7.24 59.57-7.74 60.19-8.46 60.81-9.18 61.2-10.06L61.2-10.06 66.08-5.15Q65.16-3.83 63.95-2.78 62.74-1.73 61.34-1 59.93-0.27 58.38 0.11 56.83 0.49 55.2 0.49L55.2 0.49Q52.44 0.49 50.01-0.54 47.58-1.56 45.76-3.39 43.94-5.22 42.89-7.75 41.84-10.28 41.84-13.31L41.84-13.31Q41.84-16.41 42.89-18.97 43.94-21.53 45.76-23.34 47.58-25.15 50.01-26.15 52.44-27.15 55.2-27.15L55.2-27.15Q56.83-27.15 58.39-26.76 59.96-26.37 61.36-25.63 62.76-24.9 63.98-23.84 65.2-22.78 66.13-21.46L66.13-21.46ZM49.29-9.84L57.05-20.14Q56.59-20.31 56.14-20.36 55.68-20.41 55.2-20.41L55.2-20.41Q53.83-20.41 52.62-19.91 51.41-19.41 50.52-18.48 49.63-17.55 49.12-16.25 48.6-14.94 48.6-13.31L48.6-13.31Q48.6-12.94 48.64-12.48 48.68-12.01 48.76-11.54 48.85-11.06 48.97-10.62 49.09-10.18 49.29-9.84L49.29-9.84ZM92.13-20.95L92.13-20.95 87.25-16.04Q86.88-17.07 86.25-17.88 85.61-18.7 84.82-19.26 84.03-19.82 83.1-20.12 82.17-20.41 81.19-20.41L81.19-20.41Q79.83-20.41 78.62-19.85 77.41-19.29 76.52-18.27 75.63-17.26 75.11-15.87 74.6-14.48 74.6-12.79L74.6-12.79Q74.6-11.43 75.11-10.23 75.63-9.03 76.52-8.13 77.41-7.23 78.62-6.71 79.83-6.2 81.19-6.2L81.19-6.2Q82.17-6.2 83.07-6.47 83.98-6.74 84.77-7.24 85.56-7.74 86.19-8.46 86.81-9.18 87.2-10.06L87.2-10.06 92.08-5.15Q91.15-3.83 89.95-2.78 88.74-1.73 87.33-1 85.93-0.27 84.38 0.11 82.83 0.49 81.19 0.49L81.19 0.49Q78.43 0.49 76.01-0.55 73.58-1.59 71.76-3.39 69.94-5.2 68.89-7.62 67.84-10.03 67.84-12.79L67.84-12.79Q67.84-15.8 68.89-18.41 69.94-21.02 71.76-22.96 73.58-24.9 76.01-26.03 78.43-27.15 81.19-27.15L81.19-27.15Q82.83-27.15 84.4-26.73 85.98-26.32 87.41-25.52 88.84-24.73 90.04-23.58 91.25-22.44 92.13-20.95ZM113.54 0L108.49 0Q106.07 0 103.95-0.92 101.82-1.83 100.22-3.43 98.62-5.03 97.71-7.15 96.79-9.28 96.79-11.69L96.79-11.69 96.79-19.46 93.54-19.46 93.54-26.1 96.79-26.1 96.79-36.55 103.43-36.55 103.43-26.1 113.54-26.1 113.54-19.46 103.43-19.46 103.43-11.69Q103.43-10.64 103.82-9.73 104.21-8.81 104.9-8.13 105.58-7.45 106.51-7.04 107.44-6.64 108.49-6.64L108.49-6.64 113.54-6.64 113.54 0ZM123.94-14.4L123.94 0 117.27 0 117.27-26.15 118.88-26.15 121.08-23.05Q122.69-24.51 124.74-25.31 126.79-26.1 128.99-26.1L128.99-26.1 134.88-26.1 134.88-19.46 128.99-19.46Q127.94-19.46 127.01-19.07 126.09-18.68 125.4-17.99 124.72-17.31 124.33-16.38 123.94-15.45 123.94-14.4L123.94-14.4ZM162.75-13.31L162.75-13.31Q162.75-10.38 161.7-7.85 160.65-5.32 158.85-3.48 157.04-1.64 154.61-0.57 152.18 0.49 149.4 0.49L149.4 0.49Q146.64 0.49 144.21-0.57 141.78-1.64 139.96-3.48 138.14-5.32 137.09-7.85 136.04-10.38 136.04-13.31L136.04-13.31Q136.04-16.28 137.09-18.82 138.14-21.36 139.96-23.21 141.78-25.05 144.21-26.1 146.64-27.15 149.4-27.15L149.4-27.15Q152.18-27.15 154.61-26.16 157.04-25.17 158.85-23.35 160.65-21.53 161.7-18.98 162.75-16.43 162.75-13.31ZM156.04-13.31L156.04-13.31Q156.04-14.92 155.51-16.22 154.99-17.53 154.09-18.47 153.18-19.41 151.97-19.91 150.77-20.41 149.4-20.41L149.4-20.41Q148.03-20.41 146.82-19.91 145.61-19.41 144.72-18.47 143.83-17.53 143.32-16.22 142.81-14.92 142.81-13.31L142.81-13.31Q142.81-11.79 143.32-10.5 143.83-9.2 144.72-8.25 145.61-7.3 146.82-6.75 148.03-6.2 149.4-6.2L149.4-6.2Q150.77-6.2 151.97-6.71 153.18-7.23 154.09-8.15 154.99-9.08 155.51-10.4 156.04-11.72 156.04-13.31ZM174.15-7.01L174.15 0 167.15 0 167.15-35.01 174.15-35.01 174.15-17.5 187.19-35.01 195.15-35.01 184.09-20.24 195.15 0 187.19 0 179.5-14.16 174.15-7.01ZM221.34-26.1L221.34 0 219.73 0 217.14-3.59Q216.19-2.73 215.13-1.99 214.07-1.25 212.9-0.7 211.72-0.15 210.49 0.17 209.26 0.49 207.99 0.49L207.99 0.49Q205.23 0.49 202.8-0.44 200.37-1.37 198.55-3.14 196.73-4.91 195.68-7.47 194.63-10.03 194.63-13.31L194.63-13.31Q194.63-16.36 195.68-18.91 196.73-21.46 198.55-23.29 200.37-25.12 202.8-26.14 205.23-27.15 207.99-27.15L207.99-27.15Q209.26-27.15 210.5-26.83 211.75-26.51 212.92-25.95 214.09-25.39 215.15-24.63 216.22-23.88 217.14-23L217.14-23 219.73-26.1 221.34-26.1ZM214.63-13.31L214.63-13.31Q214.63-14.67 214.1-15.95 213.58-17.24 212.68-18.23 211.77-19.21 210.56-19.81 209.36-20.41 207.99-20.41L207.99-20.41Q206.62-20.41 205.41-19.95 204.2-19.48 203.31-18.58 202.42-17.68 201.91-16.35 201.4-15.01 201.4-13.31L201.4-13.31Q201.4-11.6 201.91-10.27 202.42-8.94 203.31-8.03 204.2-7.13 205.41-6.67 206.62-6.2 207.99-6.2L207.99-6.2Q209.36-6.2 210.56-6.8 211.77-7.4 212.68-8.39 213.58-9.38 214.1-10.66 214.63-11.94 214.63-13.31ZM233.08-14.4L233.08 0 226.42 0 226.42-26.15 228.03-26.15 230.23-23.05Q231.84-24.51 233.89-25.31 235.94-26.1 238.14-26.1L238.14-26.1 244.02-26.1 244.02-19.46 238.14-19.46Q237.09-19.46 236.16-19.07 235.23-18.68 234.55-17.99 233.86-17.31 233.47-16.38 233.08-15.45 233.08-14.4L233.08-14.4ZM265.28 0L260.23 0Q257.81 0 255.69-0.92 253.56-1.83 251.96-3.43 250.37-5.03 249.45-7.15 248.53-9.28 248.53-11.69L248.53-11.69 248.53-19.46 245.29-19.46 245.29-26.1 248.53-26.1 248.53-36.55 255.18-36.55 255.18-26.1 265.28-26.1 265.28-19.46 255.18-19.46 255.18-11.69Q255.18-10.64 255.57-9.73 255.96-8.81 256.64-8.13 257.32-7.45 258.25-7.04 259.18-6.64 260.23-6.64L260.23-6.64 265.28-6.64 265.28 0Z" opacity="1" transform="matrix(1,0,0,1,0,0)" fill="#130912" class="wordmark-text-0" data-fill-palette-color="primary" id="text-0"></path></svg></g></svg></g></svg></g></svg></g><g><svg viewBox="0 0 77.87761499083445 77.25035465623253" height="77.25035465623253" width="77.87761499083445"><g><svg xmlns="http://www.w3.org/2000/svg" xmlns:xlink="http://www.w3.org/1999/xlink" xmlns:a="http://ns.adobe.com/AdobeSVGViewerExtensions/3.0/" version="1.1" x="0" y="0" viewBox="1 1.497 36.005 35.715" enable-background="new -1 -1.497 40 40" xml:space="preserve" width="77.87761499083445" height="77.25035465623253" class="icon-icon-0" data-fill-palette-color="accent" id="icon-0"><polygon points="3.535,0 0,3.928 6.008,3.928 6.008,26.447 32.077,26.447 32.077,35.612 36.005,28.804 36.005,22.519 9.936,22.519   9.936,0 3.535,0 " fill="#e77917" data-fill-palette-color="accent"></polygon><path d="M25.37 35.889c0.889 0.887 1.95 1.323 3.201 1.323 1.25 0 2.313-0.437 3.2-1.323 0.888-0.888 1.323-1.95 1.323-3.201 0-1.25-0.436-2.313-1.323-3.2-0.888-0.887-1.95-1.323-3.2-1.323-1.251 0-2.313 0.437-3.201 1.323-0.888 0.888-1.323 1.95-1.323 3.2C24.047 33.938 24.482 35.001 25.37 35.889L25.37 35.889z" fill="#e77917" data-fill-palette-color="accent"></path><path d="M14.416 35.889c0.888 0.887 1.95 1.323 3.201 1.323 1.251 0 2.313-0.437 3.199-1.323 0.889-0.888 1.324-1.95 1.324-3.201 0-1.25-0.436-2.313-1.324-3.2-0.886-0.887-1.948-1.323-3.199-1.323-1.251 0-2.313 0.437-3.201 1.323-0.887 0.888-1.324 1.95-1.324 3.2C13.092 33.938 13.529 35.001 14.416 35.889L14.416 35.889z" fill="#e77917" data-fill-palette-color="accent"></path></svg></g></svg></g></svg></g><defs></defs></svg><rect width="395.52" height="60.52338840708924" fill="none" stroke="none" visibility="hidden"></rect></g></svg></g></svg>