<svg width="21" height="22" viewBox="0 0 21 22" fill="none" xmlns="http://www.w3.org/2000/svg">
<path fill-rule="evenodd" clip-rule="evenodd" d="M10.3842 0C13.1592 0 15.4517 2.11451 15.7344 4.8189L15.8133 4.81983C17.3527 4.81983 19.2245 5.84223 19.8562 8.70984L20.6938 15.1935C20.9943 17.2861 20.6185 18.9646 19.5748 20.1686C18.5365 21.3662 16.893 22 14.8217 22H5.95873C3.68355 22 2.09845 21.4426 1.11215 20.2971C0.121595 19.1483 -0.20965 17.4252 0.127966 15.1766L0.951832 8.77885C1.49329 5.84542 3.47333 4.81983 5.0064 4.81983C5.13875 3.5994 5.68906 2.43837 6.56209 1.56811C7.56538 0.571186 8.94875 0 10.3619 0H10.3842ZM15.8133 6.41236H5.0064C4.5382 6.41236 2.97328 6.60134 2.52419 9.02622L1.70457 15.3963C1.43808 17.1831 1.64405 18.4763 2.31822 19.2587C2.9839 20.0316 4.17511 20.4075 5.95873 20.4075H14.8217C15.9343 20.4075 17.4536 20.1856 18.3709 19.126C19.0992 18.2862 19.3498 17.0356 19.1162 15.408L18.2891 8.98269C17.9367 7.39972 17.0066 6.41236 15.8133 6.41236ZM13.4806 9.36819C13.9201 9.36819 14.3012 9.72492 14.3012 10.1645C14.3012 10.604 13.9689 10.9607 13.5294 10.9607H13.4806C13.041 10.9607 12.6843 10.604 12.6843 10.1645C12.6843 9.72492 13.041 9.36819 13.4806 9.36819ZM7.29083 9.36819C7.73037 9.36819 8.11151 9.72492 8.11151 10.1645C8.11151 10.604 7.77814 10.9607 7.3386 10.9607H7.29083C6.85129 10.9607 6.49457 10.604 6.49457 10.1645C6.49457 9.72492 6.85129 9.36819 7.29083 9.36819ZM10.381 1.59253H10.365C9.366 1.59253 8.39243 1.9949 7.68641 2.69668C7.1113 3.26921 6.73516 4.02187 6.61349 4.81934L14.1294 4.81963C13.8566 2.99541 12.2791 1.59253 10.381 1.59253Z" fill="#323232"/>
</svg>
