<svg width="25" height="27" viewBox="0 0 25 27" fill="none" xmlns="http://www.w3.org/2000/svg">
<g id="Iconly/Curved/Buy" opacity="0.5">
<g id="Buy">
<path id="Stroke-1" d="M3.78227 5.87339C11.0327 4.05315 20.0466 4.16475 22.1299 6.53701C24.2131 8.90926 24.1702 16.8415 21.735 19.0181C19.3012 21.1946 8.73155 21.4015 5.38303 19.0181C1.8453 16.4985 3.89797 8.74789 3.78227 4.05315C3.85169 1.42605 1 1 1 1" stroke="#323232" stroke-width="2" stroke-linecap="round" stroke-linejoin="round"/>
<path id="Stroke-3" d="M15.3005 11.712H19.0751" stroke="#323232" stroke-width="2" stroke-linecap="round" stroke-linejoin="round"/>
<path id="Stroke-5" fill-rule="evenodd" clip-rule="evenodd" d="M5.91909 24.5176C6.32745 24.5176 6.65958 24.8498 6.65958 25.2581C6.65958 25.6678 6.32745 26 5.91909 26C5.50938 26 5.17725 25.6678 5.17725 25.2581C5.17725 24.8498 5.50938 24.5176 5.91909 24.5176Z" fill="black" stroke="#323232" stroke-width="2" stroke-linecap="round" stroke-linejoin="round"/>
<path id="Stroke-7" fill-rule="evenodd" clip-rule="evenodd" d="M19.9822 24.5176C20.3919 24.5176 20.724 24.8498 20.724 25.2581C20.724 25.6678 20.3919 26 19.9822 26C19.5738 26 19.2417 25.6678 19.2417 25.2581C19.2417 24.8498 19.5738 24.5176 19.9822 24.5176Z" fill="black" stroke="#323232" stroke-width="2" stroke-linecap="round" stroke-linejoin="round"/>
</g>
</g>
</svg>
