<svg width="23" height="22" viewBox="0 0 23 22" fill="none" xmlns="http://www.w3.org/2000/svg">
<path fill-rule="evenodd" clip-rule="evenodd" d="M15.7694 0C19.5023 0 22.011 2.61464 22.011 6.50516V15.4948C22.011 19.3854 19.5023 22 15.7694 22H6.23058C2.50326 22 0 19.3854 0 15.4948V6.50516C0 2.61464 2.50326 0 6.23058 0H15.7694ZM15.7694 1.65414H6.23058C3.45053 1.65414 1.65414 3.5586 1.65414 6.50516V15.4948C1.65414 18.4425 3.45053 20.3459 6.23058 20.3459H15.7694C18.5561 20.3459 20.3569 18.4425 20.3569 15.4948V6.50516C20.3569 3.5586 18.5561 1.65414 15.7694 1.65414ZM16.4741 11.1372C16.4811 11.1429 16.4879 11.1485 16.5023 11.1619L16.5236 11.1823C16.5279 11.1864 16.5327 11.1911 16.5379 11.1962L16.5994 11.2573C16.7983 11.4564 17.348 12.0178 18.9862 13.7C19.3049 14.0264 19.2993 14.5502 18.9718 14.8689C18.6454 15.1898 18.1205 15.1799 17.8018 14.8535C17.8018 14.8535 15.5423 12.5344 15.3813 12.3778C15.2103 12.2377 14.9357 12.1561 14.6656 12.1826C14.391 12.2102 14.144 12.3414 13.9686 12.5542C11.4058 15.6629 11.3749 15.6927 11.333 15.7335C10.3869 16.662 8.85955 16.6466 7.92992 15.6982C7.92992 15.6982 6.90436 14.6572 6.88672 14.6362C6.63198 14.4002 6.17764 14.4157 5.90526 14.7035L4.21805 16.4822C4.05484 16.6543 3.83649 16.7403 3.61815 16.7403C3.41303 16.7403 3.20902 16.6653 3.04912 16.5131C2.71719 16.1999 2.70396 15.675 3.01825 15.3453L4.70326 13.5666C5.59539 12.6193 7.10065 12.573 8.05233 13.4662L9.10877 14.5381C9.40321 14.8358 9.8818 14.8413 10.1773 14.5502C10.2887 14.419 12.6905 11.5022 12.6905 11.5022C13.1471 10.9486 13.7911 10.6068 14.5068 10.5362C15.2236 10.4733 15.9194 10.6817 16.4741 11.1372ZM7.2321 5.10455C8.75611 5.10565 9.99451 6.34515 9.99451 7.86585C9.99451 9.38876 8.75501 10.6283 7.2321 10.6283C5.70919 10.6283 4.4708 9.38876 4.4708 7.86585C4.4708 6.34295 5.70919 5.10455 7.2321 5.10455ZM7.231 6.75869C6.62117 6.75869 6.12493 7.25493 6.12493 7.86585C6.12493 8.47678 6.62117 8.97413 7.2321 8.97413C7.84303 8.97413 8.34037 8.47678 8.34037 7.86585C8.34037 7.25603 7.84303 6.75979 7.231 6.75869Z" fill="#323232"/>
</svg>
